<svg width="45" height="49" viewBox="0 0 45 49" fill="none" xmlns="http://www.w3.org/2000/svg">
<path d="M7.242 30.354C7.31 27.702 7.82 25.016 8.772 22.296C9.792 19.576 11.084 17.026 12.648 14.646C14.28 12.198 16.15 9.988 18.258 8.016C20.366 6.044 22.61 4.446 24.99 3.222C25.738 2.882 26.52 2.678 27.336 2.61C28.22 2.474 28.9 2.406 29.376 2.406C32.912 2.406 35.734 3.63 37.842 6.078C40.018 8.458 41.446 11.45 42.126 15.054C42.126 15.734 42.194 16.414 42.33 17.094C42.466 17.706 42.602 18.386 42.738 19.134C42.874 19.882 43.01 20.63 43.146 21.378C43.35 22.058 43.452 22.84 43.452 23.724C43.452 26.648 42.738 29.572 41.31 32.496C39.882 35.42 37.944 38.072 35.496 40.452C33.116 42.764 30.362 44.668 27.234 46.164C24.106 47.592 20.842 48.306 17.442 48.306C15.198 48.306 13.056 47.83 11.016 46.878C8.976 45.926 7.208 44.668 5.712 43.104C4.216 41.472 3.026 39.67 2.142 37.698C1.258 35.658 0.816 33.55 0.816 31.374C0.816 29.878 1.02 28.722 1.428 27.906C1.904 27.09 2.788 26.682 4.08 26.682C4.896 26.682 5.61 26.988 6.222 27.6V28.008L7.242 30.354ZM15.096 38.82C15.096 39.364 15.062 39.738 14.994 39.942C15.47 40.01 15.912 40.044 16.32 40.044C16.728 40.044 17.17 40.044 17.646 40.044C19.958 40.044 22.27 39.534 24.582 38.514C26.894 37.494 28.968 36.168 30.804 34.536C32.64 32.836 34.102 30.932 35.19 28.824C36.346 26.648 36.924 24.404 36.924 22.092C36.924 20.868 36.822 19.576 36.618 18.216C36.414 16.856 36.04 15.598 35.496 14.442C35.02 13.286 34.272 12.334 33.252 11.586C32.3 10.838 31.076 10.464 29.58 10.464C27.54 10.464 25.568 11.314 23.664 13.014C21.828 14.714 20.162 16.788 18.666 19.236C17.238 21.616 16.082 24.098 15.198 26.682C14.382 29.198 13.974 31.272 13.974 32.904C13.974 33.516 14.144 34.4 14.484 35.556C14.62 36.1 14.756 36.644 14.892 37.188C15.028 37.664 15.096 38.208 15.096 38.82Z" fill="#00ADB5"/>
</svg>
