<svg width="45" height="51" viewBox="0 0 45 51" fill="none" xmlns="http://www.w3.org/2000/svg">
<path d="M27.3892 29.294C28.5452 31.334 29.7012 33.374 30.8572 35.414C32.0132 37.386 33.2372 39.358 34.5292 41.33C34.6652 41.67 34.8012 42.078 34.9372 42.554C35.0732 43.03 35.1412 43.472 35.1412 43.88C35.1412 44.628 34.8692 45.308 34.3252 45.92C33.8492 46.532 33.1352 46.838 32.1832 46.838C31.4352 46.838 30.7212 46.6 30.0412 46.124C29.3612 45.648 28.7152 45.036 28.1032 44.288C27.4912 43.54 26.9132 42.724 26.3692 41.84C25.8252 40.888 25.3152 40.004 24.8392 39.188C24.4992 38.576 24.2952 38.202 24.2272 38.066C24.2272 37.93 24.0912 37.692 23.8192 37.352C23.4112 38.032 23.1052 38.678 22.9012 39.29C22.7652 39.902 22.5272 40.616 22.1872 41.432V41.33L21.7792 42.452C21.5752 43.064 21.2012 43.812 20.6572 44.696C20.1812 45.58 19.6032 46.43 18.9232 47.246C18.3112 48.062 17.6312 48.776 16.8832 49.388C16.2032 50 15.5232 50.306 14.8432 50.306C14.2992 50.306 13.7212 50.034 13.1092 49.49C12.4972 48.946 12.1912 48.198 12.1912 47.246C12.1912 46.838 12.3272 46.464 12.5992 46.124C13.4152 44.152 14.1972 42.18 14.9452 40.208C15.7612 38.168 16.5432 36.162 17.2912 34.19C17.6312 33.238 17.9372 32.354 18.2092 31.538C18.4812 30.654 18.8212 29.736 19.2292 28.784C18.6172 27.22 17.8352 25.622 16.8832 23.99C15.9992 22.358 15.0812 20.658 14.1292 18.89L12.5992 16.34C12.2592 15.66 11.8512 15.014 11.3752 14.402C10.9672 13.722 10.4912 13.042 9.94723 12.362C9.19923 11.342 8.51923 10.356 7.90723 9.404C7.22723 8.452 6.88723 7.5 6.88723 6.548C6.88723 5.596 7.22723 4.882 7.90723 4.406C8.65523 3.93 9.47123 3.692 10.3552 3.692C11.1712 3.692 12.0212 4.066 12.9052 4.814C13.7892 5.562 14.6392 6.548 15.4552 7.772C16.3392 8.928 17.1552 10.22 17.9032 11.648C18.7192 13.008 19.5012 14.334 20.2492 15.626C20.9972 16.986 21.6432 18.176 22.1872 19.196C22.7312 20.148 22.9692 20.624 22.9012 20.624C22.9692 20.624 23.1052 20.25 23.3092 19.502C23.5812 18.754 23.8872 17.802 24.2272 16.646C24.5672 15.49 24.9072 14.232 25.2472 12.872C25.6552 11.444 26.0292 10.084 26.3692 8.792C26.7772 7.364 27.1172 6.106 27.3892 5.018C27.6612 3.862 27.9332 3.012 28.2052 2.468C28.4772 1.924 28.8852 1.482 29.4292 1.142C29.9732 0.733998 30.5172 0.529999 31.0612 0.529999C32.8972 0.529999 34.1892 1.074 34.9372 2.162C35.6852 3.25 36.0592 4.236 36.0592 5.12C36.0592 5.868 35.8892 6.548 35.5492 7.16C35.2772 7.704 34.9712 8.316 34.6312 8.996C34.4272 9.336 34.2232 9.778 34.0192 10.322C33.8152 10.798 33.6452 11.274 33.5092 11.75C32.9652 13.518 32.3192 15.422 31.5712 17.462C30.8912 19.434 30.2452 21.304 29.6332 23.072L27.3892 29.294Z" fill="#00ADB5"/>
</svg>
